<mxfile host="app.diagrams.net" agent="Mozilla/5.0 (Macintosh; Intel Mac OS X 10_15_7) AppleWebKit/605.1.15 (KHTML, like Gecko) Version/17.5 Safari/605.1.15" version="24.7.7">
  <diagram id="Ht1M8jgEwFfnCIfOTk4-" name="Page-1">
    <mxGraphModel dx="1194" dy="647" grid="1" gridSize="10" guides="1" tooltips="1" connect="1" arrows="1" fold="1" page="1" pageScale="1" pageWidth="1169" pageHeight="827" math="0" shadow="0">
      <root>
        <mxCell id="0" />
        <mxCell id="1" parent="0" />
        <mxCell id="HL8e3pAti49TTeuHdFrN-2" value="" style="rounded=0;whiteSpace=wrap;html=1;" vertex="1" parent="1">
          <mxGeometry x="40" y="80" width="1100" height="720" as="geometry" />
        </mxCell>
        <mxCell id="UEzPUAAOIrF-is8g5C7q-74" value="AWS Cloud" style="points=[[0,0],[0.25,0],[0.5,0],[0.75,0],[1,0],[1,0.25],[1,0.5],[1,0.75],[1,1],[0.75,1],[0.5,1],[0.25,1],[0,1],[0,0.75],[0,0.5],[0,0.25]];outlineConnect=0;gradientColor=none;html=1;whiteSpace=wrap;fontSize=12;fontStyle=0;shape=mxgraph.aws4.group;grIcon=mxgraph.aws4.group_aws_cloud_alt;strokeColor=#232F3E;fillColor=none;verticalAlign=top;align=left;spacingLeft=30;fontColor=#232F3E;dashed=0;labelBackgroundColor=#ffffff;container=1;pointerEvents=0;collapsible=0;recursiveResize=0;" parent="1" vertex="1">
          <mxGeometry x="9" y="10" width="1151" height="810" as="geometry" />
        </mxCell>
        <mxCell id="HL8e3pAti49TTeuHdFrN-4" value="Virtual Private Cloud (VPC)&amp;nbsp;" style="text;strokeColor=none;align=center;fillColor=none;html=1;verticalAlign=middle;whiteSpace=wrap;rounded=0;" vertex="1" parent="UEzPUAAOIrF-is8g5C7q-74">
          <mxGeometry x="31" y="40" width="159" height="30" as="geometry" />
        </mxCell>
        <mxCell id="UEzPUAAOIrF-is8g5C7q-107" value="" style="rounded=0;whiteSpace=wrap;html=1;labelBackgroundColor=none;fillColor=none;dashed=1;container=1;pointerEvents=0;collapsible=0;recursiveResize=0;" parent="UEzPUAAOIrF-is8g5C7q-74" vertex="1">
          <mxGeometry x="61" y="120" width="459" height="640" as="geometry" />
        </mxCell>
        <mxCell id="HL8e3pAti49TTeuHdFrN-51" value="Bastion Host for Accessing SSH&lt;div&gt;(allowing access to specific IPs)&lt;/div&gt;" style="sketch=0;aspect=fixed;pointerEvents=1;shadow=0;dashed=0;html=1;strokeColor=none;labelPosition=center;verticalLabelPosition=bottom;verticalAlign=top;align=center;fillColor=#00188D;shape=mxgraph.azure.computer" vertex="1" parent="UEzPUAAOIrF-is8g5C7q-107">
          <mxGeometry x="80" y="470" width="80" height="72" as="geometry" />
        </mxCell>
        <mxCell id="HL8e3pAti49TTeuHdFrN-11" value="Amazon&lt;div&gt;KMS&lt;/div&gt;&lt;div&gt;&lt;br&gt;&lt;/div&gt;" style="outlineConnect=0;dashed=0;verticalLabelPosition=bottom;verticalAlign=top;align=center;html=1;shape=mxgraph.aws3.kms;fillColor=#759C3E;gradientColor=none;" vertex="1" parent="UEzPUAAOIrF-is8g5C7q-74">
          <mxGeometry x="531" y="370" width="76.5" height="93" as="geometry" />
        </mxCell>
        <mxCell id="UEzPUAAOIrF-is8g5C7q-108" value="" style="rounded=0;whiteSpace=wrap;html=1;labelBackgroundColor=none;fillColor=none;dashed=1;container=1;pointerEvents=0;collapsible=0;recursiveResize=0;" parent="UEzPUAAOIrF-is8g5C7q-74" vertex="1">
          <mxGeometry x="621" y="120" width="490" height="640" as="geometry" />
        </mxCell>
        <mxCell id="HL8e3pAti49TTeuHdFrN-12" value="EC2&lt;div&gt;&lt;br&gt;&lt;/div&gt;" style="sketch=0;points=[[0,0,0],[0.25,0,0],[0.5,0,0],[0.75,0,0],[1,0,0],[0,1,0],[0.25,1,0],[0.5,1,0],[0.75,1,0],[1,1,0],[0,0.25,0],[0,0.5,0],[0,0.75,0],[1,0.25,0],[1,0.5,0],[1,0.75,0]];outlineConnect=0;fontColor=#232F3E;fillColor=#ED7100;strokeColor=#ffffff;dashed=0;verticalLabelPosition=bottom;verticalAlign=top;align=center;html=1;fontSize=12;fontStyle=0;aspect=fixed;shape=mxgraph.aws4.resourceIcon;resIcon=mxgraph.aws4.ec2;" vertex="1" parent="UEzPUAAOIrF-is8g5C7q-108">
          <mxGeometry x="90.5" y="60" width="60" height="60" as="geometry" />
        </mxCell>
        <mxCell id="HL8e3pAti49TTeuHdFrN-35" value="" style="sketch=0;points=[[0,0,0],[0.25,0,0],[0.5,0,0],[0.75,0,0],[1,0,0],[0,1,0],[0.25,1,0],[0.5,1,0],[0.75,1,0],[1,1,0],[0,0.25,0],[0,0.5,0],[0,0.75,0],[1,0.25,0],[1,0.5,0],[1,0.75,0]];outlineConnect=0;fontColor=#232F3E;fillColor=#ED7100;strokeColor=#ffffff;dashed=0;verticalLabelPosition=bottom;verticalAlign=top;align=center;html=1;fontSize=12;fontStyle=0;aspect=fixed;shape=mxgraph.aws4.resourceIcon;resIcon=mxgraph.aws4.ec2;" vertex="1" parent="UEzPUAAOIrF-is8g5C7q-108">
          <mxGeometry x="20" y="110" width="60" height="60" as="geometry" />
        </mxCell>
        <mxCell id="HL8e3pAti49TTeuHdFrN-36" value="" style="sketch=0;points=[[0,0,0],[0.25,0,0],[0.5,0,0],[0.75,0,0],[1,0,0],[0,1,0],[0.25,1,0],[0.5,1,0],[0.75,1,0],[1,1,0],[0,0.25,0],[0,0.5,0],[0,0.75,0],[1,0.25,0],[1,0.5,0],[1,0.75,0]];outlineConnect=0;fontColor=#232F3E;fillColor=#ED7100;strokeColor=#ffffff;dashed=0;verticalLabelPosition=bottom;verticalAlign=top;align=center;html=1;fontSize=12;fontStyle=0;aspect=fixed;shape=mxgraph.aws4.resourceIcon;resIcon=mxgraph.aws4.ec2;" vertex="1" parent="UEzPUAAOIrF-is8g5C7q-108">
          <mxGeometry x="90.5" y="150" width="60" height="60" as="geometry" />
        </mxCell>
        <mxCell id="HL8e3pAti49TTeuHdFrN-37" value="" style="sketch=0;points=[[0,0,0],[0.25,0,0],[0.5,0,0],[0.75,0,0],[1,0,0],[0,1,0],[0.25,1,0],[0.5,1,0],[0.75,1,0],[1,1,0],[0,0.25,0],[0,0.5,0],[0,0.75,0],[1,0.25,0],[1,0.5,0],[1,0.75,0]];outlineConnect=0;fontColor=#232F3E;fillColor=#ED7100;strokeColor=#ffffff;dashed=0;verticalLabelPosition=bottom;verticalAlign=top;align=center;html=1;fontSize=12;fontStyle=0;aspect=fixed;shape=mxgraph.aws4.resourceIcon;resIcon=mxgraph.aws4.ec2;" vertex="1" parent="UEzPUAAOIrF-is8g5C7q-108">
          <mxGeometry x="160" y="110" width="60" height="60" as="geometry" />
        </mxCell>
        <mxCell id="HL8e3pAti49TTeuHdFrN-44" value="" style="endArrow=classic;html=1;rounded=0;exitX=0.583;exitY=1.071;exitDx=0;exitDy=0;exitPerimeter=0;" edge="1" parent="UEzPUAAOIrF-is8g5C7q-108" source="HL8e3pAti49TTeuHdFrN-43">
          <mxGeometry relative="1" as="geometry">
            <mxPoint x="395.99" y="110.00000000000003" as="sourcePoint" />
            <mxPoint x="-15.990000000000009" y="292.03" as="targetPoint" />
            <Array as="points">
              <mxPoint x="394.01" y="292.03" />
            </Array>
          </mxGeometry>
        </mxCell>
        <mxCell id="HL8e3pAti49TTeuHdFrN-45" value="Access Control&lt;div&gt;&lt;br&gt;&lt;/div&gt;" style="edgeLabel;resizable=0;html=1;;align=center;verticalAlign=middle;" connectable="0" vertex="1" parent="HL8e3pAti49TTeuHdFrN-44">
          <mxGeometry relative="1" as="geometry">
            <mxPoint x="13" y="7" as="offset" />
          </mxGeometry>
        </mxCell>
        <mxCell id="HL8e3pAti49TTeuHdFrN-70" value="Accessing application data" style="text;strokeColor=none;align=center;fillColor=none;html=1;verticalAlign=middle;whiteSpace=wrap;rounded=0;rotation=0;" vertex="1" parent="UEzPUAAOIrF-is8g5C7q-108">
          <mxGeometry x="130" y="320" width="160" height="30" as="geometry" />
        </mxCell>
        <mxCell id="HL8e3pAti49TTeuHdFrN-15" value="" style="endArrow=classic;startArrow=classic;html=1;rounded=0;" edge="1" parent="UEzPUAAOIrF-is8g5C7q-74" source="HL8e3pAti49TTeuHdFrN-11" target="HL8e3pAti49TTeuHdFrN-12">
          <mxGeometry width="50" height="50" relative="1" as="geometry">
            <mxPoint x="581" y="350" as="sourcePoint" />
            <mxPoint x="651" y="209" as="targetPoint" />
            <Array as="points">
              <mxPoint x="571" y="210" />
            </Array>
          </mxGeometry>
        </mxCell>
        <mxCell id="HL8e3pAti49TTeuHdFrN-63" value="" style="endArrow=classic;html=1;rounded=0;exitX=1;exitY=0.5;exitDx=0;exitDy=0;exitPerimeter=0;" edge="1" parent="UEzPUAAOIrF-is8g5C7q-74" source="HL8e3pAti49TTeuHdFrN-51" target="HL8e3pAti49TTeuHdFrN-11">
          <mxGeometry relative="1" as="geometry">
            <mxPoint x="261" y="614.5" as="sourcePoint" />
            <mxPoint x="361" y="614.5" as="targetPoint" />
          </mxGeometry>
        </mxCell>
        <mxCell id="HL8e3pAti49TTeuHdFrN-64" value="Admin Access to Private EC2 Instances" style="edgeLabel;resizable=0;html=1;;align=center;verticalAlign=middle;" connectable="0" vertex="1" parent="HL8e3pAti49TTeuHdFrN-63">
          <mxGeometry relative="1" as="geometry">
            <mxPoint x="-20" y="-18" as="offset" />
          </mxGeometry>
        </mxCell>
        <mxCell id="HL8e3pAti49TTeuHdFrN-7" value="Public Subnet (for managing access)" style="text;strokeColor=none;align=center;fillColor=none;html=1;verticalAlign=middle;whiteSpace=wrap;rounded=0;" vertex="1" parent="1">
          <mxGeometry x="78" y="100" width="202" height="30" as="geometry" />
        </mxCell>
        <mxCell id="HL8e3pAti49TTeuHdFrN-8" value="Private Subnet (for data processing and storage)" style="text;strokeColor=none;align=center;fillColor=none;html=1;verticalAlign=middle;whiteSpace=wrap;rounded=0;" vertex="1" parent="1">
          <mxGeometry x="599" y="100" width="321" height="30" as="geometry" />
        </mxCell>
        <mxCell id="HL8e3pAti49TTeuHdFrN-9" value="Amazon S3" style="sketch=0;outlineConnect=0;fontColor=#232F3E;gradientColor=none;strokeColor=#ffffff;fillColor=#232F3E;dashed=0;verticalLabelPosition=middle;verticalAlign=bottom;align=center;html=1;whiteSpace=wrap;fontSize=10;fontStyle=1;spacing=3;shape=mxgraph.aws4.productIcon;prIcon=mxgraph.aws4.s3;" vertex="1" parent="1">
          <mxGeometry x="660" y="580" width="80" height="100" as="geometry" />
        </mxCell>
        <mxCell id="HL8e3pAti49TTeuHdFrN-16" value="Encrypt/Decrypt Operations" style="text;strokeColor=none;align=center;fillColor=none;html=1;verticalAlign=middle;whiteSpace=wrap;rounded=0;rotation=-90;" vertex="1" parent="1">
          <mxGeometry x="490" y="280" width="155" height="30" as="geometry" />
        </mxCell>
        <mxCell id="HL8e3pAti49TTeuHdFrN-25" value="" style="endArrow=classic;html=1;rounded=0;exitX=0.8;exitY=0.8;exitDx=0;exitDy=0;exitPerimeter=0;" edge="1" parent="1" source="HL8e3pAti49TTeuHdFrN-11" target="HL8e3pAti49TTeuHdFrN-9">
          <mxGeometry relative="1" as="geometry">
            <mxPoint x="580" y="450" as="sourcePoint" />
            <mxPoint x="680" y="450" as="targetPoint" />
            <Array as="points">
              <mxPoint x="700" y="454" />
            </Array>
          </mxGeometry>
        </mxCell>
        <mxCell id="HL8e3pAti49TTeuHdFrN-26" value="S3 Encryption&lt;div&gt;&lt;br&gt;&lt;/div&gt;" style="edgeLabel;resizable=0;html=1;;align=center;verticalAlign=middle;" connectable="0" vertex="1" parent="HL8e3pAti49TTeuHdFrN-25">
          <mxGeometry relative="1" as="geometry">
            <mxPoint y="83" as="offset" />
          </mxGeometry>
        </mxCell>
        <mxCell id="HL8e3pAti49TTeuHdFrN-32" value="" style="endArrow=classic;html=1;rounded=0;" edge="1" parent="1" source="HL8e3pAti49TTeuHdFrN-12" target="HL8e3pAti49TTeuHdFrN-9">
          <mxGeometry relative="1" as="geometry">
            <mxPoint x="780" y="218.5" as="sourcePoint" />
            <mxPoint x="880" y="218.5" as="targetPoint" />
            <Array as="points">
              <mxPoint x="920" y="220" />
              <mxPoint x="920" y="630" />
            </Array>
          </mxGeometry>
        </mxCell>
        <mxCell id="HL8e3pAti49TTeuHdFrN-34" value="Storing encrypted data" style="edgeLabel;html=1;align=center;verticalAlign=middle;resizable=0;points=[];" vertex="1" connectable="0" parent="HL8e3pAti49TTeuHdFrN-32">
          <mxGeometry x="0.14" relative="1" as="geometry">
            <mxPoint x="-70" y="122" as="offset" />
          </mxGeometry>
        </mxCell>
        <mxCell id="HL8e3pAti49TTeuHdFrN-40" value="EC2 instance contents" style="points=[[0,0],[0.25,0],[0.5,0],[0.75,0],[1,0],[1,0.25],[1,0.5],[1,0.75],[1,1],[0.75,1],[0.5,1],[0.25,1],[0,1],[0,0.75],[0,0.5],[0,0.25]];outlineConnect=0;gradientColor=none;html=1;whiteSpace=wrap;fontSize=12;fontStyle=0;container=1;pointerEvents=0;collapsible=0;recursiveResize=0;shape=mxgraph.aws4.group;grIcon=mxgraph.aws4.group_ec2_instance_contents;strokeColor=#D86613;fillColor=none;verticalAlign=top;align=left;spacingLeft=30;fontColor=#D86613;dashed=0;" vertex="1" parent="1">
          <mxGeometry x="645" y="160" width="215" height="220" as="geometry" />
        </mxCell>
        <mxCell id="HL8e3pAti49TTeuHdFrN-42" value="IAM for S3" style="verticalLabelPosition=bottom;sketch=0;html=1;fillColor=#282828;strokeColor=none;verticalAlign=top;pointerEvents=1;align=center;shape=mxgraph.cisco_safe.security_icons.iam;" vertex="1" parent="1">
          <mxGeometry x="1020" y="590" width="60" height="70" as="geometry" />
        </mxCell>
        <mxCell id="HL8e3pAti49TTeuHdFrN-43" value="IAM for Key User&lt;div&gt;&lt;br&gt;&lt;div&gt;&lt;br&gt;&lt;/div&gt;&lt;/div&gt;" style="verticalLabelPosition=bottom;sketch=0;html=1;fillColor=#282828;strokeColor=none;verticalAlign=top;pointerEvents=1;align=center;shape=mxgraph.cisco_safe.security_icons.iam;" vertex="1" parent="1">
          <mxGeometry x="990" y="170" width="60" height="70" as="geometry" />
        </mxCell>
        <mxCell id="HL8e3pAti49TTeuHdFrN-48" value="" style="endArrow=classic;html=1;rounded=0;" edge="1" parent="1" source="HL8e3pAti49TTeuHdFrN-42" target="HL8e3pAti49TTeuHdFrN-11">
          <mxGeometry relative="1" as="geometry">
            <mxPoint x="1040" y="700" as="sourcePoint" />
            <mxPoint x="940" y="700" as="targetPoint" />
            <Array as="points">
              <mxPoint x="1050" y="700" />
              <mxPoint x="580" y="700" />
            </Array>
          </mxGeometry>
        </mxCell>
        <mxCell id="HL8e3pAti49TTeuHdFrN-49" value="Instance Permissions" style="edgeLabel;resizable=0;html=1;;align=center;verticalAlign=middle;" connectable="0" vertex="1" parent="HL8e3pAti49TTeuHdFrN-48">
          <mxGeometry relative="1" as="geometry" />
        </mxCell>
        <mxCell id="HL8e3pAti49TTeuHdFrN-50" value="RDS" style="outlineConnect=0;dashed=0;verticalLabelPosition=bottom;verticalAlign=top;align=center;html=1;shape=mxgraph.aws3.rds;fillColor=#2E73B8;gradientColor=none;" vertex="1" parent="1">
          <mxGeometry x="940" y="520" width="60" height="80" as="geometry" />
        </mxCell>
        <mxCell id="HL8e3pAti49TTeuHdFrN-52" value="NAT Gateway for Outbound Internet Access" style="sketch=0;outlineConnect=0;fontColor=#232F3E;gradientColor=none;strokeColor=#232F3E;fillColor=#ffffff;dashed=0;verticalLabelPosition=bottom;verticalAlign=top;align=center;html=1;fontSize=12;fontStyle=0;aspect=fixed;shape=mxgraph.aws4.resourceIcon;resIcon=mxgraph.aws4.nat_gateway;" vertex="1" parent="1">
          <mxGeometry x="150" y="240" width="90" height="90" as="geometry" />
        </mxCell>
        <mxCell id="HL8e3pAti49TTeuHdFrN-60" value="" style="endArrow=classic;html=1;rounded=0;" edge="1" parent="1" source="HL8e3pAti49TTeuHdFrN-52" target="HL8e3pAti49TTeuHdFrN-11">
          <mxGeometry relative="1" as="geometry">
            <mxPoint x="330" y="280" as="sourcePoint" />
            <mxPoint x="430" y="280" as="targetPoint" />
            <Array as="points">
              <mxPoint x="195" y="427" />
            </Array>
          </mxGeometry>
        </mxCell>
        <mxCell id="HL8e3pAti49TTeuHdFrN-61" value="Internet Access for Private Instances&lt;div&gt;&lt;br&gt;&lt;/div&gt;" style="edgeLabel;resizable=0;html=1;;align=center;verticalAlign=middle;" connectable="0" vertex="1" parent="HL8e3pAti49TTeuHdFrN-60">
          <mxGeometry relative="1" as="geometry">
            <mxPoint x="46" as="offset" />
          </mxGeometry>
        </mxCell>
        <mxCell id="HL8e3pAti49TTeuHdFrN-65" value="" style="endArrow=classic;html=1;rounded=0;entryX=0.275;entryY=0.004;entryDx=0;entryDy=0;entryPerimeter=0;" edge="1" parent="1" source="HL8e3pAti49TTeuHdFrN-52" target="HL8e3pAti49TTeuHdFrN-2">
          <mxGeometry relative="1" as="geometry">
            <mxPoint x="420" y="220.00032786885248" as="sourcePoint" />
            <mxPoint x="300" y="130" as="targetPoint" />
          </mxGeometry>
        </mxCell>
        <mxCell id="HL8e3pAti49TTeuHdFrN-66" value="Outbound Internet Traffic" style="edgeLabel;resizable=0;html=1;;align=center;verticalAlign=middle;" connectable="0" vertex="1" parent="HL8e3pAti49TTeuHdFrN-65">
          <mxGeometry relative="1" as="geometry" />
        </mxCell>
        <mxCell id="HL8e3pAti49TTeuHdFrN-67" value="" style="endArrow=classic;startArrow=classic;html=1;rounded=0;entryX=1;entryY=1;entryDx=0;entryDy=0;entryPerimeter=0;exitX=0;exitY=0.22;exitDx=0;exitDy=0;exitPerimeter=0;" edge="1" parent="1" source="HL8e3pAti49TTeuHdFrN-50" target="HL8e3pAti49TTeuHdFrN-36">
          <mxGeometry width="50" height="50" relative="1" as="geometry">
            <mxPoint x="940" y="525" as="sourcePoint" />
            <mxPoint x="840" y="364" as="targetPoint" />
          </mxGeometry>
        </mxCell>
        <mxCell id="HL8e3pAti49TTeuHdFrN-71" value="" style="endArrow=classic;html=1;rounded=0;exitX=0;exitY=0.5;exitDx=0;exitDy=0;exitPerimeter=0;" edge="1" parent="1" source="HL8e3pAti49TTeuHdFrN-50" target="HL8e3pAti49TTeuHdFrN-11">
          <mxGeometry relative="1" as="geometry">
            <mxPoint x="880.5" y="550" as="sourcePoint" />
            <mxPoint x="780.5" y="550" as="targetPoint" />
          </mxGeometry>
        </mxCell>
        <mxCell id="HL8e3pAti49TTeuHdFrN-72" value="Encrypted (at rest)&amp;nbsp;" style="edgeLabel;resizable=0;html=1;;align=center;verticalAlign=middle;" connectable="0" vertex="1" parent="HL8e3pAti49TTeuHdFrN-71">
          <mxGeometry relative="1" as="geometry" />
        </mxCell>
      </root>
    </mxGraphModel>
  </diagram>
</mxfile>
